<svg width="379" height="178" viewBox="0 0 379 178" fill="none" xmlns="http://www.w3.org/2000/svg">
<g filter="url(#filter0_d_68_434)">
<mask id="path-1-outside-1_68_434" maskUnits="userSpaceOnUse" x="29.2269" y="44.3166" width="320.9" height="105.492" fill="black">
<rect fill="white" x="29.2269" y="44.3166" width="320.9" height="105.492"/>
<path d="M60.0303 145.565C55.588 146.031 51.5646 146.018 47.9601 145.525C44.3486 144.966 41.067 144.037 38.1153 142.738L40.2904 131.851C42.8165 132.927 45.6201 133.772 48.7011 134.387C51.8485 134.995 54.914 135.142 57.8976 134.829C61.6768 134.432 64.7827 133.369 67.2154 131.639C69.6411 129.842 70.6903 127.386 70.3632 124.27C70.203 122.745 69.6695 121.494 68.7625 120.516C67.9218 119.532 66.7966 118.712 65.3871 118.055C64.0438 117.392 62.5155 116.882 60.8023 116.526C59.1484 116.096 57.4282 115.673 55.6417 115.258C53.5167 114.81 51.2452 114.245 48.8271 113.56C46.4022 112.809 44.1151 111.776 41.9659 110.459C39.8761 109.07 38.0463 107.285 36.4766 105.103C34.9732 102.915 34.044 100.13 33.689 96.7487C33.4245 94.2292 33.6049 91.7971 34.2301 89.4523C34.9217 87.1006 36.1418 84.995 37.8906 83.1356C39.6393 81.2762 41.9567 79.7257 44.8429 78.4842C47.7221 77.1764 51.2502 76.3033 55.4272 75.8647C59.2064 75.4679 62.6925 75.4706 65.8852 75.8728C69.1443 76.268 72.2759 77.0452 75.2801 78.2046L73.0423 88.4945C70.4044 87.6318 67.695 87.0449 64.914 86.7336C62.1329 86.4223 59.5821 86.3884 57.2615 86.6321C53.2834 87.0497 50.406 88.0557 48.6295 89.6499C46.8529 91.2441 46.076 93.102 46.2987 95.2237C46.4588 96.7487 46.9627 98.0364 47.8104 99.087C48.6511 100.071 49.7099 100.899 50.9869 101.569C52.2639 102.239 53.6961 102.793 55.2837 103.229C56.8714 103.666 58.4886 104.066 60.1356 104.429C62.606 104.974 65.1235 105.648 67.688 106.452C70.2456 107.189 72.6025 108.248 74.7586 109.631C76.9148 111.013 78.7445 112.799 80.2479 114.987C81.7443 117.109 82.6666 119.827 83.0146 123.143C83.3696 126.524 83.0129 129.511 81.9444 132.103C80.9422 134.689 79.401 136.929 77.3208 138.823C75.3068 140.71 72.8167 142.212 69.8503 143.327C66.8839 144.443 63.6106 145.189 60.0303 145.565ZM101.184 140.038L88.2554 141.395L81.2177 74.3636L94.1466 73.0062L101.184 140.038ZM132.973 78.3814C126.144 79.0984 120.993 81.7508 117.52 86.3385C114.106 90.853 112.834 97.2541 113.704 105.542C114.073 109.056 114.838 112.193 115.999 114.954C117.16 117.714 118.611 120.042 120.352 121.937C122.152 123.759 124.139 125.126 126.313 126.037C128.546 126.875 130.889 127.166 133.342 126.908C135.132 126.72 136.795 126.277 138.331 125.58C139.859 124.816 141.161 123.808 142.236 122.556C143.305 121.237 144.08 119.681 144.562 117.887C145.103 116.021 145.252 113.927 145.008 111.606L144.591 107.628L131.662 108.986L130.534 98.2447L155.994 95.5716L160.014 133.861L148.875 135.031L146.658 127.32C145.523 129.919 143.787 132.213 141.448 134.202C139.169 136.117 136.04 137.283 132.062 137.701C127.951 138.132 124.089 137.734 120.474 136.504C116.918 135.202 113.761 133.221 111.002 130.561C108.235 127.835 105.973 124.486 104.215 120.514C102.451 116.477 101.304 111.938 100.775 106.899C100.19 101.33 100.431 96.2772 101.496 91.7412C102.628 87.1981 104.496 83.2817 107.1 79.9918C109.763 76.6286 113.1 73.9322 117.11 71.9024C121.113 69.8063 125.7 68.4867 130.872 67.9438C138.033 67.192 144.621 68.0085 150.636 70.3935L148.487 80.5735C146.034 79.5574 143.45 78.8902 140.736 78.5719C138.08 78.1804 135.493 78.1169 132.973 78.3814ZM199.444 61.951L212.373 60.5936L219.41 127.625L206.481 128.983L179.618 93.3929C177.982 91.2185 176.482 89.0634 175.119 86.9274C173.821 84.7845 172.646 82.5283 171.593 80.1586L171.294 80.1899C172.117 82.9189 172.8 85.5956 173.344 88.2198C173.947 90.7708 174.36 93.1071 174.583 95.2288L178.435 131.927L165.507 133.285L158.469 66.2529L172.392 64.7911L198.261 100.485C199.897 102.66 201.364 104.818 202.661 106.961C204.025 109.097 205.233 111.35 206.287 113.719L206.585 113.688C205.762 110.959 205.049 108.319 204.446 105.768C203.903 103.144 203.519 100.771 203.297 98.6493L199.444 61.951ZM266.973 113.18C271.349 112.72 274.61 110.903 276.757 107.728C278.963 104.48 279.753 99.8726 279.127 93.9054L274.94 54.0246L287.869 52.6672L292.045 92.4485C293.062 102.129 291.426 109.54 287.14 114.682C282.854 119.825 276.5 122.838 268.08 123.722C259.659 124.606 252.819 122.978 247.558 118.838C242.297 114.698 239.158 107.788 238.142 98.1079L233.965 58.3266L246.894 56.9692L251.081 96.85C251.707 102.817 253.404 107.164 256.17 109.89C258.996 112.543 262.597 113.639 266.973 113.18ZM343.817 68.6124C344.145 71.7286 343.887 74.705 343.046 77.5418C342.197 80.3122 340.849 82.7999 339.003 85.0047C337.156 87.2096 334.8 89.0322 331.935 90.4726C329.07 91.913 325.814 92.8246 322.167 93.2075L311.526 94.3247L313.98 117.696L301.051 119.054L294.013 52.0221L318.18 49.4848C321.827 49.1019 325.168 49.3209 328.203 50.1418C331.239 50.9626 333.852 52.23 336.043 53.9439C338.234 55.6579 339.999 57.7852 341.339 60.3259C342.678 62.8666 343.504 65.6288 343.817 68.6124ZM330.889 69.9698C330.554 66.7873 329.395 64.3618 327.41 62.6933C325.418 60.9584 322.731 60.2685 319.35 60.6236L308.111 61.8035L310.356 83.1859L320.998 82.0687C324.445 81.7067 327.03 80.4634 328.751 78.3388C330.531 76.1409 331.244 73.3512 330.889 69.9698Z"/>
</mask>
<path d="M60.0303 145.565C55.588 146.031 51.5646 146.018 47.9601 145.525C44.3486 144.966 41.067 144.037 38.1153 142.738L40.2904 131.851C42.8165 132.927 45.6201 133.772 48.7011 134.387C51.8485 134.995 54.914 135.142 57.8976 134.829C61.6768 134.432 64.7827 133.369 67.2154 131.639C69.6411 129.842 70.6903 127.386 70.3632 124.27C70.203 122.745 69.6695 121.494 68.7625 120.516C67.9218 119.532 66.7966 118.712 65.3871 118.055C64.0438 117.392 62.5155 116.882 60.8023 116.526C59.1484 116.096 57.4282 115.673 55.6417 115.258C53.5167 114.81 51.2452 114.245 48.8271 113.56C46.4022 112.809 44.1151 111.776 41.9659 110.459C39.8761 109.07 38.0463 107.285 36.4766 105.103C34.9732 102.915 34.044 100.13 33.689 96.7487C33.4245 94.2292 33.6049 91.7971 34.2301 89.4523C34.9217 87.1006 36.1418 84.995 37.8906 83.1356C39.6393 81.2762 41.9567 79.7257 44.8429 78.4842C47.7221 77.1764 51.2502 76.3033 55.4272 75.8647C59.2064 75.4679 62.6925 75.4706 65.8852 75.8728C69.1443 76.268 72.2759 77.0452 75.2801 78.2046L73.0423 88.4945C70.4044 87.6318 67.695 87.0449 64.914 86.7336C62.1329 86.4223 59.5821 86.3884 57.2615 86.6321C53.2834 87.0497 50.406 88.0557 48.6295 89.6499C46.8529 91.2441 46.076 93.102 46.2987 95.2237C46.4588 96.7487 46.9627 98.0364 47.8104 99.087C48.6511 100.071 49.7099 100.899 50.9869 101.569C52.2639 102.239 53.6961 102.793 55.2837 103.229C56.8714 103.666 58.4886 104.066 60.1356 104.429C62.606 104.974 65.1235 105.648 67.688 106.452C70.2456 107.189 72.6025 108.248 74.7586 109.631C76.9148 111.013 78.7445 112.799 80.2479 114.987C81.7443 117.109 82.6666 119.827 83.0146 123.143C83.3696 126.524 83.0129 129.511 81.9444 132.103C80.9422 134.689 79.401 136.929 77.3208 138.823C75.3068 140.71 72.8167 142.212 69.8503 143.327C66.8839 144.443 63.6106 145.189 60.0303 145.565ZM101.184 140.038L88.2554 141.395L81.2177 74.3636L94.1466 73.0062L101.184 140.038ZM132.973 78.3814C126.144 79.0984 120.993 81.7508 117.52 86.3385C114.106 90.853 112.834 97.2541 113.704 105.542C114.073 109.056 114.838 112.193 115.999 114.954C117.16 117.714 118.611 120.042 120.352 121.937C122.152 123.759 124.139 125.126 126.313 126.037C128.546 126.875 130.889 127.166 133.342 126.908C135.132 126.72 136.795 126.277 138.331 125.58C139.859 124.816 141.161 123.808 142.236 122.556C143.305 121.237 144.08 119.681 144.562 117.887C145.103 116.021 145.252 113.927 145.008 111.606L144.591 107.628L131.662 108.986L130.534 98.2447L155.994 95.5716L160.014 133.861L148.875 135.031L146.658 127.32C145.523 129.919 143.787 132.213 141.448 134.202C139.169 136.117 136.04 137.283 132.062 137.701C127.951 138.132 124.089 137.734 120.474 136.504C116.918 135.202 113.761 133.221 111.002 130.561C108.235 127.835 105.973 124.486 104.215 120.514C102.451 116.477 101.304 111.938 100.775 106.899C100.19 101.33 100.431 96.2772 101.496 91.7412C102.628 87.1981 104.496 83.2817 107.1 79.9918C109.763 76.6286 113.1 73.9322 117.11 71.9024C121.113 69.8063 125.7 68.4867 130.872 67.9438C138.033 67.192 144.621 68.0085 150.636 70.3935L148.487 80.5735C146.034 79.5574 143.45 78.8902 140.736 78.5719C138.08 78.1804 135.493 78.1169 132.973 78.3814ZM199.444 61.951L212.373 60.5936L219.41 127.625L206.481 128.983L179.618 93.3929C177.982 91.2185 176.482 89.0634 175.119 86.9274C173.821 84.7845 172.646 82.5283 171.593 80.1586L171.294 80.1899C172.117 82.9189 172.8 85.5956 173.344 88.2198C173.947 90.7708 174.36 93.1071 174.583 95.2288L178.435 131.927L165.507 133.285L158.469 66.2529L172.392 64.7911L198.261 100.485C199.897 102.66 201.364 104.818 202.661 106.961C204.025 109.097 205.233 111.35 206.287 113.719L206.585 113.688C205.762 110.959 205.049 108.319 204.446 105.768C203.903 103.144 203.519 100.771 203.297 98.6493L199.444 61.951ZM266.973 113.18C271.349 112.72 274.61 110.903 276.757 107.728C278.963 104.48 279.753 99.8726 279.127 93.9054L274.94 54.0246L287.869 52.6672L292.045 92.4485C293.062 102.129 291.426 109.54 287.14 114.682C282.854 119.825 276.5 122.838 268.08 123.722C259.659 124.606 252.819 122.978 247.558 118.838C242.297 114.698 239.158 107.788 238.142 98.1079L233.965 58.3266L246.894 56.9692L251.081 96.85C251.707 102.817 253.404 107.164 256.17 109.89C258.996 112.543 262.597 113.639 266.973 113.18ZM343.817 68.6124C344.145 71.7286 343.887 74.705 343.046 77.5418C342.197 80.3122 340.849 82.7999 339.003 85.0047C337.156 87.2096 334.8 89.0322 331.935 90.4726C329.07 91.913 325.814 92.8246 322.167 93.2075L311.526 94.3247L313.98 117.696L301.051 119.054L294.013 52.0221L318.18 49.4848C321.827 49.1019 325.168 49.3209 328.203 50.1418C331.239 50.9626 333.852 52.23 336.043 53.9439C338.234 55.6579 339.999 57.7852 341.339 60.3259C342.678 62.8666 343.504 65.6288 343.817 68.6124ZM330.889 69.9698C330.554 66.7873 329.395 64.3618 327.41 62.6933C325.418 60.9584 322.731 60.2685 319.35 60.6236L308.111 61.8035L310.356 83.1859L320.998 82.0687C324.445 81.7067 327.03 80.4634 328.751 78.3388C330.531 76.1409 331.244 73.3512 330.889 69.9698Z" fill="black"/>
<path d="M47.9601 145.525L47.8071 146.513L47.8158 146.515L47.8246 146.516L47.9601 145.525ZM38.1153 142.738L37.1346 142.542L36.9773 143.33L37.7125 143.653L38.1153 142.738ZM40.2904 131.851L40.6821 130.931L39.5507 130.45L39.3098 131.655L40.2904 131.851ZM48.7011 134.387L48.5054 135.368L48.5115 135.369L48.7011 134.387ZM67.2154 131.639L67.795 132.454L67.8028 132.448L67.8105 132.442L67.2154 131.639ZM68.7625 120.516L68.0021 121.166L68.0155 121.182L68.0295 121.197L68.7625 120.516ZM65.3871 118.055L64.9443 118.952L64.9545 118.957L64.9649 118.962L65.3871 118.055ZM60.8023 116.526L60.5508 117.494L60.5746 117.5L60.5986 117.505L60.8023 116.526ZM55.6417 115.258L55.8683 114.284L55.858 114.281L55.8476 114.279L55.6417 115.258ZM48.8271 113.56L48.5314 114.515L48.543 114.519L48.5547 114.522L48.8271 113.56ZM41.9659 110.459L41.4123 111.292L41.4278 111.302L41.4437 111.312L41.9659 110.459ZM36.4766 105.103L35.6524 105.67L35.6586 105.679L35.6649 105.687L36.4766 105.103ZM34.2301 89.4523L33.2707 89.1702L33.2672 89.1824L33.2639 89.1947L34.2301 89.4523ZM44.8429 78.4842L45.238 79.4028L45.2473 79.3989L45.2564 79.3947L44.8429 78.4842ZM65.8852 75.8728L65.7603 76.865L65.7649 76.8655L65.8852 75.8728ZM75.2801 78.2046L76.2572 78.4171L76.4393 77.58L75.6401 77.2716L75.2801 78.2046ZM73.0423 88.4945L72.7314 89.4449L73.7841 89.7892L74.0194 88.707L73.0423 88.4945ZM64.914 86.7336L65.0252 85.7398L64.914 86.7336ZM48.6295 89.6499L47.9616 88.9056L48.6295 89.6499ZM47.8104 99.087L47.0321 99.7149L47.0409 99.7258L47.05 99.7365L47.8104 99.087ZM50.9869 101.569L51.4517 100.683L50.9869 101.569ZM55.2838 103.229L55.5489 102.265L55.5489 102.265L55.2838 103.229ZM60.1356 104.429L59.9201 105.406L60.1356 104.429ZM67.688 106.452L67.3891 107.406L67.4001 107.409L67.4111 107.413L67.688 106.452ZM74.7586 109.631L75.2984 108.789L74.7586 109.631ZM80.2479 114.987L79.4236 115.553L79.4307 115.563L80.2479 114.987ZM81.9444 132.103L81.0199 131.722L81.0158 131.732L81.012 131.742L81.9444 132.103ZM77.3208 138.823L76.6475 138.083L76.6422 138.088L76.637 138.093L77.3208 138.823ZM59.9258 144.571C55.5461 145.03 51.605 145.014 48.0956 144.534L47.8246 146.516C51.5242 147.022 55.6299 147.033 60.1347 146.56L59.9258 144.571ZM48.1131 144.537C44.5765 143.989 41.3803 143.082 38.518 141.823L37.7125 143.653C40.7537 144.991 44.1208 145.943 47.8071 146.513L48.1131 144.537ZM39.0959 142.934L41.271 132.047L39.3098 131.655L37.1346 142.542L39.0959 142.934ZM39.8987 132.771C42.4961 133.877 45.3665 134.741 48.5054 135.368L48.8969 133.406C45.8736 132.803 43.1369 131.976 40.6821 130.931L39.8987 132.771ZM48.5115 135.369C51.7491 135.994 54.9138 136.148 58.002 135.824L57.7932 133.835C54.9142 134.137 51.9479 133.996 48.8908 133.405L48.5115 135.369ZM58.002 135.824C61.9066 135.414 65.1888 134.307 67.795 132.454L66.6358 130.824C64.3767 132.431 61.447 133.451 57.7932 133.835L58.002 135.824ZM67.8105 132.442C70.5337 130.426 71.7201 127.617 71.3577 124.165L69.3686 124.374C69.6606 127.155 68.7484 129.259 66.6202 130.835L67.8105 132.442ZM71.3577 124.165C71.1785 122.459 70.5711 120.995 69.4955 119.836L68.0295 121.197C68.7679 121.992 69.2276 123.031 69.3686 124.374L71.3577 124.165ZM69.5229 119.867C68.5723 118.754 67.3229 117.854 65.8092 117.149L64.9649 118.962C66.2703 119.57 67.2712 120.31 68.0021 121.166L69.5229 119.867ZM65.8299 117.159C64.3992 116.452 62.7886 115.918 61.0059 115.547L60.5986 117.505C62.2425 117.847 63.6884 118.332 64.9443 118.952L65.8299 117.159ZM61.0537 115.558C59.391 115.126 57.6625 114.701 55.8683 114.284L55.415 116.232C57.1938 116.646 58.9058 117.066 60.5508 117.494L61.0537 115.558ZM55.8476 114.279C53.7481 113.837 51.499 113.277 49.0996 112.598L48.5547 114.522C50.9914 115.212 53.2853 115.784 55.4357 116.236L55.8476 114.279ZM49.1229 112.605C46.7768 111.878 44.5659 110.879 42.4881 109.607L41.4437 111.312C43.6643 112.672 46.0275 113.74 48.5314 114.515L49.1229 112.605ZM42.5195 109.627C40.5369 108.309 38.7927 106.61 37.2883 104.519L35.6649 105.687C37.2999 107.96 39.2152 109.832 41.4123 111.292L42.5195 109.627ZM37.3009 104.537C35.9147 102.519 35.0259 99.9053 34.6836 96.6443L32.6945 96.8531C33.0621 100.355 34.0318 103.311 35.6524 105.67L37.3009 104.537ZM34.6836 96.6443C34.4312 94.2408 34.6039 91.9317 35.1964 89.71L33.2639 89.1947C32.6058 91.6625 32.4178 94.2176 32.6945 96.8531L34.6836 96.6443ZM35.1895 89.7344C35.8349 87.5396 36.9732 85.5706 38.619 83.8207L37.1621 82.4505C35.3104 84.4194 34.0084 86.6616 33.2707 89.1702L35.1895 89.7344ZM38.619 83.8207C40.2548 82.0814 42.4495 80.6023 45.238 79.4028L44.4477 77.5656C41.4639 78.8491 39.0238 80.471 37.1621 82.4505L38.619 83.8207ZM45.2564 79.3947C48.0116 78.1432 51.4286 77.29 55.5316 76.8593L55.3228 74.8702C51.0718 75.3165 47.4325 76.2096 44.4293 77.5738L45.2564 79.3947ZM55.5316 76.8593C59.2479 76.4691 62.6558 76.4739 65.7603 76.8649L66.0102 74.8806C62.7291 74.4673 59.165 74.4668 55.3228 74.8702L55.5316 76.8593ZM65.7649 76.8655C68.9435 77.251 71.9945 78.0085 74.92 79.1375L75.6401 77.2716C72.5573 76.082 69.3451 75.285 66.0056 74.8801L65.7649 76.8655ZM74.3029 77.992L72.0651 88.282L74.0194 88.707L76.2572 78.4171L74.3029 77.992ZM73.3531 87.544C70.6498 86.66 67.8735 86.0586 65.0252 85.7398L64.8027 87.7274C67.5165 88.0311 70.159 88.6037 72.7314 89.4449L73.3531 87.544ZM65.0252 85.7398C62.1862 85.422 59.5619 85.385 57.1571 85.6375L57.366 87.6266C59.6023 87.3918 62.0796 87.4225 64.8027 87.7274L65.0252 85.7398ZM57.1571 85.6375C53.0975 86.0637 49.9693 87.104 47.9616 88.9056L49.2973 90.3942C50.8428 89.0073 53.4693 88.0357 57.366 87.6266L57.1571 85.6375ZM47.9616 88.9056C45.9791 90.6846 45.0436 92.8461 45.3042 95.3281L47.2933 95.1193C47.1083 93.358 47.7266 91.8036 49.2973 90.3942L47.9616 88.9056ZM45.3042 95.3281C45.4816 97.018 46.0475 98.4947 47.0321 99.7149L48.5886 98.459C47.8779 97.5782 47.436 96.4793 47.2933 95.1193L45.3042 95.3281ZM47.05 99.7365C47.9822 100.828 49.1453 101.732 50.5221 102.454L51.4517 100.683C50.2745 100.066 49.3199 99.3146 48.5708 98.4375L47.05 99.7365ZM50.5221 102.454C51.8708 103.162 53.3713 103.74 55.0186 104.193L55.5489 102.265C54.021 101.845 52.6569 101.316 51.4517 100.683L50.5221 102.454ZM55.0186 104.193C56.623 104.635 58.2569 105.039 59.9201 105.406L60.351 103.453C58.7203 103.093 57.1197 102.697 55.5489 102.265L55.0186 104.193ZM59.9201 105.406C62.3607 105.944 64.8504 106.611 67.3891 107.406L67.9869 105.497C65.3966 104.686 62.8512 104.004 60.351 103.453L59.9201 105.406ZM67.4111 107.413C69.8795 108.124 72.1473 109.144 74.2189 110.473L75.2984 108.789C73.0577 107.352 70.6118 106.253 67.9649 105.491L67.4111 107.413ZM74.2189 110.473C76.2586 111.78 77.993 113.471 79.4237 115.553L81.0721 114.421C79.4961 112.127 77.5709 110.246 75.2984 108.789L74.2189 110.473ZM79.4307 115.563C80.8046 117.511 81.6849 120.055 82.0201 123.247L84.0092 123.038C83.6482 119.6 82.6841 116.706 81.0651 114.411L79.4307 115.563ZM82.0201 123.247C82.3614 126.498 82.013 129.313 81.0199 131.722L82.869 132.484C84.0128 129.709 84.3778 126.55 84.0092 123.038L82.0201 123.247ZM81.012 131.742C80.0666 134.181 78.615 136.292 76.6475 138.083L77.994 139.562C80.187 137.565 81.8178 135.197 82.8768 132.465L81.012 131.742ZM76.637 138.093C74.7321 139.878 72.3596 141.315 69.4982 142.392L70.2024 144.263C73.2737 143.108 75.8815 141.542 78.0046 139.553L76.637 138.093ZM69.4982 142.392C66.6215 143.474 63.4327 144.202 59.9258 144.571L60.1347 146.56C63.7884 146.176 67.1463 145.413 70.2024 144.263L69.4982 142.392ZM101.184 140.038L101.289 141.032L102.283 140.928L102.179 139.933L101.184 140.038ZM88.2554 141.395L87.2608 141.5L87.3653 142.494L88.3598 142.39L88.2554 141.395ZM81.2177 74.3636L81.1133 73.369L80.1188 73.4735L80.2232 74.468L81.2177 74.3636ZM94.1466 73.0062L95.1412 72.9017L95.0368 71.9072L94.0422 72.0116L94.1466 73.0062ZM101.08 139.043L88.151 140.401L88.3598 142.39L101.289 141.032L101.08 139.043ZM89.2499 141.291L82.2122 74.2592L80.2232 74.468L87.2608 141.5L89.2499 141.291ZM81.3221 75.3581L94.2511 74.0007L94.0422 72.0116L81.1133 73.369L81.3221 75.3581ZM93.1521 73.1106L100.19 140.142L102.179 139.933L95.1412 72.9017L93.1521 73.1106ZM117.52 86.3385L116.722 85.7349L116.722 85.7353L117.52 86.3385ZM120.352 121.937L119.616 122.614L119.628 122.627L119.641 122.64L120.352 121.937ZM126.313 126.037L125.926 126.96L125.944 126.967L125.962 126.974L126.313 126.037ZM138.331 125.58L138.744 126.49L138.761 126.483L138.778 126.475L138.331 125.58ZM142.236 122.556L142.995 123.207L143.005 123.196L143.013 123.185L142.236 122.556ZM144.562 117.887L143.601 117.609L143.599 117.618L143.596 117.628L144.562 117.887ZM144.591 107.628L145.585 107.524L145.481 106.529L144.486 106.634L144.591 107.628ZM131.662 108.986L130.667 109.09L130.772 110.085L131.766 109.98L131.662 108.986ZM130.534 98.2447L130.43 97.2501L129.435 97.3546L129.539 98.3491L130.534 98.2447ZM155.994 95.5716L156.989 95.4672L156.884 94.4727L155.89 94.5771L155.994 95.5716ZM160.014 133.861L160.118 134.856L161.113 134.751L161.009 133.757L160.014 133.861ZM148.875 135.031L147.914 135.307L148.146 136.113L148.98 136.025L148.875 135.031ZM146.658 127.32L147.619 127.044L146.852 124.376L145.742 126.92L146.658 127.32ZM141.448 134.202L142.091 134.967L142.096 134.963L141.448 134.202ZM120.474 136.504L120.13 137.443L120.141 137.447L120.152 137.451L120.474 136.504ZM111.002 130.561L110.3 131.273L110.308 131.281L111.002 130.561ZM104.215 120.515L103.299 120.915L103.301 120.919L104.215 120.515ZM101.496 91.7412L100.526 91.4994L100.523 91.5125L101.496 91.7412ZM107.1 79.9918L106.316 79.371L106.316 79.3712L107.1 79.9918ZM117.11 71.9024L117.562 72.7947L117.574 72.7883L117.11 71.9024ZM150.636 70.3935L151.614 70.6L151.788 69.7747L151.004 69.4639L150.636 70.3935ZM148.487 80.5735L148.104 81.4974L149.217 81.9582L149.465 80.78L148.487 80.5735ZM140.736 78.5719L140.59 79.5612L140.604 79.5634L140.619 79.5651L140.736 78.5719ZM132.869 77.3869C125.822 78.1267 120.395 80.8843 116.722 85.7349L118.317 86.9421C121.591 82.6172 126.466 80.0701 133.078 79.3759L132.869 77.3869ZM116.722 85.7353C113.096 90.53 111.825 97.2237 112.709 105.646L114.698 105.437C113.842 97.2845 115.115 91.176 118.317 86.9417L116.722 85.7353ZM112.709 105.646C113.087 109.241 113.872 112.476 115.077 115.341L116.921 114.566C115.804 111.91 115.059 108.871 114.698 105.437L112.709 105.646ZM115.077 115.341C116.276 118.191 117.785 120.621 119.616 122.614L121.089 121.261C119.438 119.463 118.045 117.237 116.921 114.566L115.077 115.341ZM119.641 122.64C121.526 124.548 123.621 125.993 125.926 126.96L126.7 125.115C124.658 124.259 122.779 122.971 121.064 121.235L119.641 122.64ZM125.962 126.974C128.345 127.868 130.845 128.176 133.447 127.903L133.238 125.914C130.934 126.156 128.747 125.883 126.664 125.101L125.962 126.974ZM133.447 127.903C135.337 127.704 137.105 127.235 138.744 126.49L137.917 124.669C136.486 125.32 134.928 125.736 133.238 125.914L133.447 127.903ZM138.778 126.475C140.421 125.653 141.83 124.564 142.995 123.207L141.478 121.904C140.492 123.052 139.298 123.979 137.884 124.685L138.778 126.475ZM143.013 123.185C144.178 121.748 145.013 120.063 145.527 118.147L143.596 117.628C143.147 119.299 142.431 120.726 141.459 121.926L143.013 123.185ZM145.522 118.166C146.106 116.153 146.257 113.926 146.003 111.502L144.014 111.711C144.247 113.928 144.1 115.889 143.601 117.609L145.522 118.166ZM146.003 111.502L145.585 107.524L143.596 107.733L144.014 111.711L146.003 111.502ZM144.486 106.634L131.557 107.991L131.766 109.98L144.695 108.623L144.486 106.634ZM132.656 108.881L131.529 98.1403L129.539 98.3491L130.667 109.09L132.656 108.881ZM130.638 99.2392L156.098 96.5661L155.89 94.5771L130.43 97.2501L130.638 99.2392ZM155 95.676L159.02 133.966L161.009 133.757L156.989 95.4672L155 95.676ZM159.91 132.867L148.771 134.036L148.98 136.025L160.118 134.856L159.91 132.867ZM149.836 134.754L147.619 127.044L145.697 127.596L147.914 135.307L149.836 134.754ZM145.742 126.92C144.673 129.369 143.033 131.542 140.8 133.44L142.096 134.963C144.541 132.885 146.374 130.47 147.575 127.72L145.742 126.92ZM140.805 133.436C138.723 135.185 135.804 136.302 131.958 136.706L132.167 138.695C136.276 138.264 139.615 137.048 142.091 134.967L140.805 133.436ZM131.958 136.706C127.979 137.124 124.263 136.736 120.796 135.558L120.152 137.451C123.915 138.731 127.924 139.141 132.167 138.695L131.958 136.706ZM120.818 135.565C117.395 134.311 114.356 132.405 111.696 129.841L110.308 131.281C113.166 134.036 116.442 136.092 120.13 137.443L120.818 135.565ZM111.703 129.849C109.037 127.221 106.843 123.98 105.13 120.11L103.301 120.919C105.104 124.992 107.434 128.449 110.3 131.273L111.703 129.849ZM105.132 120.114C103.414 116.183 102.289 111.747 101.77 106.795L99.7805 107.004C100.319 112.13 101.488 116.77 103.299 120.915L105.132 120.114ZM101.77 106.795C101.194 101.315 101.434 96.3773 102.47 91.9698L100.523 91.5125C99.427 96.1771 99.1863 101.345 99.7805 107.004L101.77 106.795ZM102.467 91.9829C103.568 87.5619 105.378 83.7784 107.884 80.6124L106.316 79.3712C103.614 82.785 101.688 86.8344 100.526 91.4994L102.467 91.9829ZM107.884 80.6126C110.453 77.3683 113.674 74.7622 117.562 72.7946L116.658 71.0102C112.526 73.1021 109.074 75.889 106.316 79.371L107.884 80.6126ZM117.574 72.7883C121.449 70.7589 125.912 69.47 130.976 68.9383L130.767 66.9492C125.489 67.5034 120.777 68.8536 116.646 71.0165L117.574 72.7883ZM130.976 68.9383C137.995 68.2014 144.418 69.0041 150.267 71.3231L151.004 69.4639C144.823 67.013 138.07 66.1825 130.767 66.9492L130.976 68.9383ZM149.657 70.1869L147.509 80.367L149.465 80.78L151.614 70.6L149.657 70.1869ZM148.87 79.6496C146.329 78.5972 143.656 77.9074 140.852 77.5787L140.619 79.5651C143.245 79.873 145.739 80.5176 148.104 81.4974L148.87 79.6496ZM140.881 77.5826C138.148 77.1796 135.476 77.1131 132.869 77.3869L133.078 79.3759C135.509 79.1207 138.012 79.1812 140.59 79.5612L140.881 77.5826ZM199.444 61.951L199.339 60.9564L198.345 61.0609L198.449 62.0554L199.444 61.951ZM212.373 60.5936L213.367 60.4891L213.263 59.4946L212.268 59.599L212.373 60.5936ZM219.41 127.625L219.515 128.62L220.509 128.515L220.405 127.521L219.41 127.625ZM206.481 128.983L205.683 129.585L206.024 130.036L206.586 129.977L206.481 128.983ZM179.618 93.3929L178.819 93.9942L178.82 93.9954L179.618 93.3929ZM175.119 86.9274L174.263 87.4454L174.269 87.4556L174.276 87.4656L175.119 86.9274ZM171.593 80.1586L172.506 79.7525L172.211 79.0882L171.488 79.1641L171.593 80.1586ZM171.294 80.1899L171.19 79.1954L169.988 79.3216L170.337 80.4786L171.294 80.1899ZM173.344 88.2198L172.365 88.4227L172.368 88.4363L172.371 88.4499L173.344 88.2198ZM178.435 131.927L178.54 132.922L179.534 132.817L179.43 131.823L178.435 131.927ZM165.507 133.285L164.512 133.389L164.616 134.383L165.611 134.279L165.507 133.285ZM158.469 66.2529L158.364 65.2584L157.37 65.3628L157.474 66.3574L158.469 66.2529ZM172.392 64.7911L173.202 64.2043L172.863 63.7362L172.288 63.7966L172.392 64.7911ZM198.261 100.485L197.451 101.072L197.456 101.079L197.462 101.086L198.261 100.485ZM202.661 106.961L201.806 107.479L201.812 107.489L201.818 107.499L202.661 106.961ZM206.287 113.719L205.373 114.126L205.668 114.79L206.391 114.714L206.287 113.719ZM206.585 113.688L206.689 114.683L207.891 114.556L207.542 113.399L206.585 113.688ZM204.446 105.768L203.467 105.971L203.47 105.985L203.473 105.998L204.446 105.768ZM199.548 62.9455L212.477 61.5881L212.268 59.599L199.339 60.9564L199.548 62.9455ZM211.378 60.698L218.416 127.73L220.405 127.521L213.367 60.4891L211.378 60.698ZM219.306 126.631L206.377 127.988L206.586 129.977L219.515 128.62L219.306 126.631ZM207.279 128.38L180.417 92.7905L178.82 93.9954L205.683 129.585L207.279 128.38ZM180.417 92.7917C178.796 90.6363 177.311 88.5021 175.961 86.3893L174.276 87.4656C175.654 89.6246 177.169 91.8008 178.819 93.9942L180.417 92.7917ZM175.974 86.4095C174.699 84.3038 173.543 82.085 172.506 79.7525L170.679 80.5648C171.748 82.9715 172.943 85.2652 174.263 87.4454L175.974 86.4095ZM171.488 79.1641L171.19 79.1954L171.399 81.1845L171.697 81.1531L171.488 79.1641ZM170.337 80.4786C171.152 83.1811 171.827 85.8291 172.365 88.4227L174.323 88.017C173.773 85.362 173.082 82.6568 172.252 79.9013L170.337 80.4786ZM172.371 88.4499C172.966 90.9684 173.371 93.2621 173.588 95.3332L175.577 95.1244C175.349 92.9522 174.928 90.5732 174.317 87.9898L172.371 88.4499ZM173.588 95.3332L177.441 132.032L179.43 131.823L175.577 95.1244L173.588 95.3332ZM178.331 130.933L165.402 132.29L165.611 134.279L178.54 132.922L178.331 130.933ZM166.501 133.18L159.463 66.1485L157.474 66.3574L164.512 133.389L166.501 133.18ZM158.573 67.2475L172.497 65.7856L172.288 63.7966L158.364 65.2584L158.573 67.2475ZM171.583 65.3779L197.451 101.072L199.071 99.8983L173.202 64.2043L171.583 65.3779ZM197.462 101.086C199.079 103.236 200.527 105.367 201.806 107.479L203.516 106.443C202.2 104.269 200.714 102.083 199.06 99.8839L197.462 101.086ZM201.818 107.499C203.154 109.592 204.339 111.801 205.373 114.126L207.2 113.313C206.127 110.899 204.895 108.602 203.504 106.423L201.818 107.499ZM206.391 114.714L206.689 114.683L206.48 112.694L206.182 112.725L206.391 114.714ZM207.542 113.399C206.725 110.688 206.017 108.068 205.419 105.538L203.473 105.998C204.081 108.57 204.799 111.23 205.627 113.977L207.542 113.399ZM205.425 105.565C204.887 102.966 204.51 100.626 204.291 98.5449L202.302 98.7537C202.529 100.915 202.918 103.322 203.467 105.971L205.425 105.565ZM204.291 98.5449L200.438 61.8466L198.449 62.0554L202.302 98.7537L204.291 98.5449ZM276.757 107.728L275.93 107.167L275.929 107.168L276.757 107.728ZM274.94 54.0246L274.835 53.0301L273.841 53.1345L273.945 54.129L274.94 54.0246ZM287.869 52.6672L288.863 52.5628L288.759 51.5683L287.764 51.6727L287.869 52.6672ZM287.14 114.682L286.372 114.042L287.14 114.682ZM247.558 118.838L248.176 118.052L247.558 118.838ZM233.965 58.3266L233.86 57.332L232.866 57.4365L232.97 58.431L233.965 58.3266ZM246.894 56.9692L247.888 56.8647L247.784 55.8702L246.789 55.9746L246.894 56.9692ZM256.17 109.89L255.468 110.602L255.477 110.611L255.486 110.619L256.17 109.89ZM267.077 114.174C271.698 113.689 275.248 111.746 277.586 108.289L275.929 107.168C273.973 110.061 270.999 111.752 266.868 112.185L267.077 114.174ZM277.584 108.29C279.978 104.767 280.76 99.8843 280.121 93.801L278.132 94.0098C278.747 99.8609 277.949 104.194 275.93 107.167L277.584 108.29ZM280.121 93.801L275.934 53.9202L273.945 54.129L278.132 94.0098L280.121 93.801ZM275.044 55.0192L287.973 53.6617L287.764 51.6727L274.835 53.0301L275.044 55.0192ZM286.874 52.7716L291.051 92.553L293.04 92.3441L288.863 52.5628L286.874 52.7716ZM291.051 92.553C292.052 102.087 290.42 109.186 286.372 114.042L287.908 115.323C292.433 109.894 294.071 102.17 293.04 92.3441L291.051 92.553ZM286.372 114.042C282.293 118.935 276.209 121.863 267.975 122.727L268.184 124.716C276.792 123.813 283.414 120.714 287.908 115.323L286.372 114.042ZM267.975 122.727C259.742 123.592 253.182 121.991 248.176 118.052L246.939 119.624C252.455 123.965 259.577 125.62 268.184 124.716L267.975 122.727ZM248.176 118.052C243.208 114.143 240.137 107.538 239.136 98.0035L237.147 98.2123C238.179 108.039 241.385 115.254 246.939 119.624L248.176 118.052ZM239.136 98.0035L234.959 58.2222L232.97 58.431L237.147 98.2123L239.136 98.0035ZM234.069 59.3211L246.998 57.9637L246.789 55.9746L233.86 57.332L234.069 59.3211ZM245.899 57.0736L250.086 96.9544L252.075 96.7455L247.888 56.8647L245.899 57.0736ZM250.086 96.9544C250.725 103.033 252.468 107.646 255.468 110.602L256.872 109.178C254.34 106.682 252.69 102.602 252.075 96.7455L250.086 96.9544ZM255.486 110.619C258.554 113.499 262.456 114.66 267.077 114.174L266.868 112.185C262.738 112.619 259.439 111.586 256.855 109.161L255.486 110.619ZM343.046 77.5418L344.002 77.8347L344.004 77.8263L343.046 77.5418ZM331.935 90.4726L332.384 91.366L331.935 90.4726ZM311.526 94.3247L311.421 93.3302L310.427 93.4346L310.531 94.4291L311.526 94.3247ZM313.98 117.696L314.084 118.691L315.078 118.586L314.974 117.592L313.98 117.696ZM301.051 119.054L300.056 119.158L300.16 120.153L301.155 120.048L301.051 119.054ZM294.013 52.0221L293.908 51.0276L292.914 51.132L293.018 52.1265L294.013 52.0221ZM328.203 50.1418L327.942 51.1071L327.942 51.1071L328.203 50.1418ZM336.043 53.9439L335.427 54.7316L336.043 53.9439ZM341.339 60.3259L340.454 60.7922L341.339 60.3259ZM327.41 62.6933L326.753 63.4474L326.76 63.4531L326.766 63.4588L327.41 62.6933ZM308.111 61.8035L308.007 60.8089L307.012 60.9133L307.117 61.9079L308.111 61.8035ZM310.356 83.1859L309.362 83.2904L309.466 84.2849L310.461 84.1805L310.356 83.1859ZM328.751 78.3388L327.974 77.7094L328.751 78.3388ZM342.823 68.7168C343.137 71.7101 342.889 74.5539 342.087 77.2573L344.004 77.8263C344.886 74.8562 345.152 71.7471 344.812 68.508L342.823 68.7168ZM342.089 77.2489C341.28 79.8924 339.996 82.2611 338.236 84.3627L339.769 85.6468C341.702 83.3386 343.114 80.732 344.002 77.8347L342.089 77.2489ZM338.236 84.3627C336.487 86.4515 334.243 88.1929 331.486 89.5791L332.384 91.366C335.357 89.8715 337.826 87.9676 339.769 85.6468L338.236 84.3627ZM331.486 89.5791C328.743 90.9581 325.606 91.8409 322.063 92.2129L322.272 94.202C326.021 93.8083 329.397 92.8678 332.384 91.366L331.486 89.5791ZM322.063 92.2129L311.421 93.3302L311.63 95.3193L322.272 94.202L322.063 92.2129ZM310.531 94.4291L312.985 117.801L314.974 117.592L312.52 94.2203L310.531 94.4291ZM313.875 116.702L300.946 118.059L301.155 120.048L314.084 118.691L313.875 116.702ZM302.045 118.949L295.007 51.9177L293.018 52.1265L300.056 119.158L302.045 118.949ZM294.117 53.0166L318.284 50.4793L318.076 48.4903L293.908 51.0276L294.117 53.0166ZM318.284 50.4793C321.829 50.1072 325.044 50.3233 327.942 51.1071L328.464 49.1764C325.292 48.3186 321.825 48.0966 318.076 48.4903L318.284 50.4793ZM327.942 51.1071C330.866 51.8976 333.354 53.1101 335.427 54.7316L336.659 53.1563C334.35 51.3499 331.612 50.0276 328.464 49.1764L327.942 51.1071ZM335.427 54.7316C337.503 56.3557 339.178 58.3722 340.454 60.7922L342.223 59.8596C340.82 57.1982 338.965 54.9601 336.659 53.1563L335.427 54.7316ZM340.454 60.7922C341.731 63.2154 342.522 65.854 342.823 68.7168L344.812 68.508C344.486 65.4036 343.625 62.5178 342.223 59.8596L340.454 60.7922ZM331.883 69.8654C331.529 66.4889 330.28 63.7999 328.053 61.9278L326.766 63.4588C328.509 64.9236 329.58 67.0856 329.894 70.0742L331.883 69.8654ZM328.066 61.9391C325.809 59.9732 322.819 59.2538 319.245 59.629L319.454 61.6181C322.643 61.2833 325.026 61.9437 326.753 63.4474L328.066 61.9391ZM319.245 59.629L308.007 60.8089L308.216 62.798L319.454 61.6181L319.245 59.629ZM307.117 61.9079L309.362 83.2904L311.351 83.0815L309.106 61.699L307.117 61.9079ZM310.461 84.1805L321.102 83.0632L320.893 81.0742L310.252 82.1914L310.461 84.1805ZM321.102 83.0632C324.739 82.6814 327.598 81.3505 329.528 78.9682L327.974 77.7094C326.461 79.5763 324.152 80.7321 320.893 81.0742L321.102 83.0632ZM329.528 78.9682C331.508 76.5235 332.26 73.4535 331.883 69.8654L329.894 70.0742C330.227 73.2489 329.554 75.7582 327.974 77.7094L329.528 78.9682Z" fill="black" mask="url(#path-1-outside-1_68_434)"/>
<mask id="path-3-outside-2_68_434" maskUnits="userSpaceOnUse" x="29.748" y="43.4665" width="320.9" height="105.492" fill="black">
<rect fill="white" x="29.748" y="43.4665" width="320.9" height="105.492"/>
<path d="M60.5514 144.715C56.1091 145.181 52.0857 145.168 48.4812 144.675C44.8698 144.116 41.5881 143.187 38.6364 141.888L40.8115 131.001C43.3376 132.077 46.1412 132.922 49.2223 133.537C52.3696 134.145 55.4351 134.292 58.4187 133.979C62.1979 133.582 65.3039 132.519 67.7365 130.789C70.1622 128.992 71.2114 126.536 70.8843 123.42C70.7242 121.895 70.1906 120.644 69.2836 119.666C68.4429 118.682 67.3178 117.862 65.9082 117.205C64.5649 116.542 63.0366 116.032 61.3234 115.676C59.6695 115.246 57.9493 114.823 56.1628 114.408C54.0378 113.96 51.7663 113.394 49.3483 112.71C46.9233 111.959 44.6362 110.925 42.487 109.609C40.3972 108.22 38.5674 106.435 36.9977 104.253C35.4944 102.065 34.5652 99.28 34.2101 95.8986C33.9456 93.3791 34.126 90.947 34.7512 88.6022C35.4428 86.2505 36.6629 84.1449 38.4117 82.2855C40.1604 80.4261 42.4779 78.8756 45.364 77.6341C48.2432 76.3263 51.7713 75.4532 55.9483 75.0146C59.7276 74.6178 63.2136 74.6205 66.4063 75.0227C69.6654 75.4179 72.797 76.1951 75.8012 77.3545L73.5634 87.6444C70.9256 86.7818 68.2161 86.1948 65.4351 85.8835C62.654 85.5722 60.1032 85.5383 57.7827 85.782C53.8045 86.1996 50.9272 87.2056 49.1506 88.7998C47.374 90.394 46.5971 92.2519 46.8198 94.3736C46.9799 95.8986 47.4838 97.1863 48.3315 98.2369C49.1722 99.2212 50.231 100.048 51.508 100.719C52.785 101.389 54.2173 101.943 55.8049 102.379C57.3925 102.816 59.0097 103.216 60.6567 103.579C63.1271 104.124 65.6446 104.798 68.2091 105.602C70.7667 106.339 73.1236 107.398 75.2797 108.781C77.4359 110.163 79.2656 111.948 80.769 114.137C82.2654 116.259 83.1877 118.977 83.5357 122.292C83.8907 125.674 83.534 128.661 82.4655 131.253C81.4633 133.839 79.9221 136.078 77.8419 137.973C75.8279 139.86 73.3378 141.362 70.3714 142.477C67.405 143.593 64.1317 144.339 60.5514 144.715ZM101.705 139.188L88.7765 140.545L81.7388 73.5135L94.6678 72.1561L101.705 139.188ZM133.494 77.5313C126.665 78.2483 121.514 80.9007 118.041 85.4884C114.627 90.0029 113.355 96.404 114.225 104.692C114.594 108.206 115.359 111.343 116.52 114.104C117.682 116.864 119.133 119.192 120.873 121.087C122.673 122.909 124.66 124.276 126.834 125.187C129.067 126.025 131.41 126.316 133.863 126.058C135.654 125.87 137.316 125.427 138.852 124.73C140.381 123.966 141.682 122.958 142.758 121.706C143.826 120.387 144.601 118.831 145.083 117.037C145.624 115.17 145.773 113.077 145.529 110.756L145.112 106.778L132.183 108.136L131.055 97.3946L156.515 94.7215L160.535 133.011L149.396 134.181L147.179 126.47C146.044 129.069 144.308 131.363 141.969 133.352C139.69 135.267 136.561 136.433 132.583 136.851C128.473 137.282 124.61 136.883 120.995 135.654C117.44 134.352 114.282 132.37 111.523 129.711C108.756 126.985 106.494 123.636 104.737 119.664C102.972 115.627 101.825 111.088 101.296 106.049C100.711 100.48 100.952 95.4271 102.017 90.8911C103.149 86.348 105.017 82.4316 107.621 79.1417C110.284 75.7785 113.621 73.0821 117.631 71.0523C121.634 68.9562 126.221 67.6366 131.393 67.0937C138.554 66.3419 145.142 67.1584 151.157 69.5434L149.008 79.7234C146.555 78.7073 143.971 78.0401 141.257 77.7218C138.601 77.3303 136.014 77.2668 133.494 77.5313ZM199.965 61.1009L212.894 59.7435L219.931 126.775L207.002 128.132L180.139 92.5428C178.503 90.3684 177.004 88.2133 175.64 86.0773C174.342 83.9344 173.167 81.6782 172.114 79.3085L171.815 79.3398C172.638 82.0688 173.321 84.7455 173.865 87.3697C174.468 89.9207 174.881 92.257 175.104 94.3787L178.957 131.077L166.028 132.434L158.99 65.4028L172.913 63.941L198.782 99.635C200.418 101.809 201.885 103.968 203.182 106.111C204.546 108.247 205.754 110.5 206.808 112.869L207.106 112.838C206.283 110.109 205.57 107.469 204.967 104.918C204.424 102.294 204.041 99.9208 203.818 97.7992L199.965 61.1009ZM267.494 112.33C271.87 111.87 275.131 110.053 277.278 106.878C279.484 103.63 280.274 99.0225 279.648 93.0553L275.461 53.1745L288.39 51.8171L292.566 91.5984C293.583 101.279 291.948 108.69 287.661 113.832C283.375 118.975 277.021 121.988 268.601 122.872C260.18 123.756 253.34 122.128 248.079 117.988C242.818 113.848 239.679 106.938 238.663 97.2578L234.486 57.4765L247.415 56.1191L251.602 95.9999C252.229 101.967 253.925 106.314 256.691 109.04C259.517 111.693 263.118 112.789 267.494 112.33ZM344.339 67.7623C344.666 70.8785 344.408 73.855 343.567 76.6917C342.718 79.4621 341.37 81.9498 339.524 84.1546C337.677 86.3595 335.321 88.1821 332.456 89.6225C329.591 91.0629 326.335 91.9745 322.688 92.3574L312.047 93.4746L314.501 116.846L301.572 118.204L294.534 51.172L318.701 48.6347C322.348 48.2518 325.689 48.4708 328.725 49.2917C331.76 50.1125 334.374 51.3799 336.564 53.0938C338.755 54.8078 340.521 56.9351 341.86 59.4758C343.199 62.0165 344.025 64.7787 344.339 67.7623ZM331.41 69.1197C331.076 65.9372 329.916 63.5117 327.931 61.8432C325.939 60.1083 323.252 59.4184 319.871 59.7735L308.632 60.9534L310.877 82.3358L321.519 81.2186C324.967 80.8566 327.551 79.6133 329.272 77.4887C331.052 75.2908 331.765 72.5011 331.41 69.1197Z"/>
</mask>
<path d="M60.5514 144.715C56.1091 145.181 52.0857 145.168 48.4812 144.675C44.8698 144.116 41.5881 143.187 38.6364 141.888L40.8115 131.001C43.3376 132.077 46.1412 132.922 49.2223 133.537C52.3696 134.145 55.4351 134.292 58.4187 133.979C62.1979 133.582 65.3039 132.519 67.7365 130.789C70.1622 128.992 71.2114 126.536 70.8843 123.42C70.7242 121.895 70.1906 120.644 69.2836 119.666C68.4429 118.682 67.3178 117.862 65.9082 117.205C64.5649 116.542 63.0366 116.032 61.3234 115.676C59.6695 115.246 57.9493 114.823 56.1628 114.408C54.0378 113.96 51.7663 113.394 49.3483 112.71C46.9233 111.959 44.6362 110.925 42.487 109.609C40.3972 108.22 38.5674 106.435 36.9977 104.253C35.4944 102.065 34.5652 99.28 34.2101 95.8986C33.9456 93.3791 34.126 90.947 34.7512 88.6022C35.4428 86.2505 36.6629 84.1449 38.4117 82.2855C40.1604 80.4261 42.4779 78.8756 45.364 77.6341C48.2432 76.3263 51.7713 75.4532 55.9483 75.0146C59.7276 74.6178 63.2136 74.6205 66.4063 75.0227C69.6654 75.4179 72.797 76.1951 75.8012 77.3545L73.5634 87.6444C70.9256 86.7818 68.2161 86.1948 65.4351 85.8835C62.654 85.5722 60.1032 85.5383 57.7827 85.782C53.8045 86.1996 50.9272 87.2056 49.1506 88.7998C47.374 90.394 46.5971 92.2519 46.8198 94.3736C46.9799 95.8986 47.4838 97.1863 48.3315 98.2369C49.1722 99.2212 50.231 100.048 51.508 100.719C52.785 101.389 54.2173 101.943 55.8049 102.379C57.3925 102.816 59.0097 103.216 60.6567 103.579C63.1271 104.124 65.6446 104.798 68.2091 105.602C70.7667 106.339 73.1236 107.398 75.2797 108.781C77.4359 110.163 79.2656 111.948 80.769 114.137C82.2654 116.259 83.1877 118.977 83.5357 122.292C83.8907 125.674 83.534 128.661 82.4655 131.253C81.4633 133.839 79.9221 136.078 77.8419 137.973C75.8279 139.86 73.3378 141.362 70.3714 142.477C67.405 143.593 64.1317 144.339 60.5514 144.715ZM101.705 139.188L88.7765 140.545L81.7388 73.5135L94.6678 72.1561L101.705 139.188ZM133.494 77.5313C126.665 78.2483 121.514 80.9007 118.041 85.4884C114.627 90.0029 113.355 96.404 114.225 104.692C114.594 108.206 115.359 111.343 116.52 114.104C117.682 116.864 119.133 119.192 120.873 121.087C122.673 122.909 124.66 124.276 126.834 125.187C129.067 126.025 131.41 126.316 133.863 126.058C135.654 125.87 137.316 125.427 138.852 124.73C140.381 123.966 141.682 122.958 142.758 121.706C143.826 120.387 144.601 118.831 145.083 117.037C145.624 115.17 145.773 113.077 145.529 110.756L145.112 106.778L132.183 108.136L131.055 97.3946L156.515 94.7215L160.535 133.011L149.396 134.181L147.179 126.47C146.044 129.069 144.308 131.363 141.969 133.352C139.69 135.267 136.561 136.433 132.583 136.851C128.473 137.282 124.61 136.883 120.995 135.654C117.44 134.352 114.282 132.37 111.523 129.711C108.756 126.985 106.494 123.636 104.737 119.664C102.972 115.627 101.825 111.088 101.296 106.049C100.711 100.48 100.952 95.4271 102.017 90.8911C103.149 86.348 105.017 82.4316 107.621 79.1417C110.284 75.7785 113.621 73.0821 117.631 71.0523C121.634 68.9562 126.221 67.6366 131.393 67.0937C138.554 66.3419 145.142 67.1584 151.157 69.5434L149.008 79.7234C146.555 78.7073 143.971 78.0401 141.257 77.7218C138.601 77.3303 136.014 77.2668 133.494 77.5313ZM199.965 61.1009L212.894 59.7435L219.931 126.775L207.002 128.132L180.139 92.5428C178.503 90.3684 177.004 88.2133 175.64 86.0773C174.342 83.9344 173.167 81.6782 172.114 79.3085L171.815 79.3398C172.638 82.0688 173.321 84.7455 173.865 87.3697C174.468 89.9207 174.881 92.257 175.104 94.3787L178.957 131.077L166.028 132.434L158.99 65.4028L172.913 63.941L198.782 99.635C200.418 101.809 201.885 103.968 203.182 106.111C204.546 108.247 205.754 110.5 206.808 112.869L207.106 112.838C206.283 110.109 205.57 107.469 204.967 104.918C204.424 102.294 204.041 99.9208 203.818 97.7992L199.965 61.1009ZM267.494 112.33C271.87 111.87 275.131 110.053 277.278 106.878C279.484 103.63 280.274 99.0225 279.648 93.0553L275.461 53.1745L288.39 51.8171L292.566 91.5984C293.583 101.279 291.948 108.69 287.661 113.832C283.375 118.975 277.021 121.988 268.601 122.872C260.18 123.756 253.34 122.128 248.079 117.988C242.818 113.848 239.679 106.938 238.663 97.2578L234.486 57.4765L247.415 56.1191L251.602 95.9999C252.229 101.967 253.925 106.314 256.691 109.04C259.517 111.693 263.118 112.789 267.494 112.33ZM344.339 67.7623C344.666 70.8785 344.408 73.855 343.567 76.6917C342.718 79.4621 341.37 81.9498 339.524 84.1546C337.677 86.3595 335.321 88.1821 332.456 89.6225C329.591 91.0629 326.335 91.9745 322.688 92.3574L312.047 93.4746L314.501 116.846L301.572 118.204L294.534 51.172L318.701 48.6347C322.348 48.2518 325.689 48.4708 328.725 49.2917C331.76 50.1125 334.374 51.3799 336.564 53.0938C338.755 54.8078 340.521 56.9351 341.86 59.4758C343.199 62.0165 344.025 64.7787 344.339 67.7623ZM331.41 69.1197C331.076 65.9372 329.916 63.5117 327.931 61.8432C325.939 60.1083 323.252 59.4184 319.871 59.7735L308.632 60.9534L310.877 82.3358L321.519 81.2186C324.967 80.8566 327.551 79.6133 329.272 77.4887C331.052 75.2908 331.765 72.5011 331.41 69.1197Z" fill="#FFD000"/>
<path d="M48.4812 144.675L48.3282 145.663L48.3369 145.665L48.3457 145.666L48.4812 144.675ZM38.6364 141.888L37.6558 141.692L37.4984 142.48L38.2336 142.803L38.6364 141.888ZM40.8115 131.001L41.2032 130.081L40.0718 129.599L39.8309 130.805L40.8115 131.001ZM49.2223 133.537L49.0265 134.518L49.0326 134.519L49.2223 133.537ZM67.7365 130.789L68.3161 131.604L68.3239 131.598L68.3317 131.592L67.7365 130.789ZM69.2836 119.666L68.5232 120.316L68.5366 120.331L68.5506 120.347L69.2836 119.666ZM65.9082 117.205L65.4654 118.102L65.4757 118.107L65.486 118.112L65.9082 117.205ZM61.3234 115.676L61.072 116.644L61.0957 116.65L61.1197 116.655L61.3234 115.676ZM56.1628 114.408L56.3894 113.434L56.3791 113.431L56.3687 113.429L56.1628 114.408ZM49.3483 112.71L49.0525 113.665L49.0641 113.669L49.0759 113.672L49.3483 112.71ZM42.487 109.609L41.9334 110.442L41.9489 110.452L41.9648 110.462L42.487 109.609ZM36.9977 104.253L36.1735 104.819L36.1797 104.828L36.186 104.837L36.9977 104.253ZM34.7512 88.6022L33.7919 88.3201L33.7883 88.3323L33.785 88.3446L34.7512 88.6022ZM45.364 77.6341L45.7591 78.5527L45.7684 78.5488L45.7776 78.5446L45.364 77.6341ZM66.4063 75.0227L66.2814 76.0149L66.286 76.0154L66.4063 75.0227ZM75.8012 77.3545L76.7783 77.567L76.9604 76.7299L76.1612 76.4215L75.8012 77.3545ZM73.5634 87.6444L73.2526 88.5948L74.3052 88.9391L74.5405 87.8569L73.5634 87.6444ZM65.4351 85.8835L65.5463 84.8897L65.4351 85.8835ZM49.1506 88.7998L48.4827 88.0555L49.1506 88.7998ZM48.3315 98.2369L47.5532 98.8648L47.562 98.8757L47.5711 98.8864L48.3315 98.2369ZM51.508 100.719L51.9728 99.8334L51.508 100.719ZM55.8049 102.379L56.07 101.415L56.07 101.415L55.8049 102.379ZM60.6567 103.579L60.4412 104.556L60.6567 103.579ZM68.2091 105.602L67.9102 106.556L67.9212 106.559L67.9323 106.563L68.2091 105.602ZM75.2797 108.781L75.8195 107.939L75.2797 108.781ZM80.769 114.137L79.9447 114.703L79.9518 114.713L80.769 114.137ZM82.4655 131.253L81.541 130.872L81.537 130.882L81.5331 130.892L82.4655 131.253ZM77.8419 137.973L77.1686 137.233L77.1633 137.238L77.1581 137.243L77.8419 137.973ZM60.447 143.72C56.0672 144.18 52.1261 144.164 48.6167 143.684L48.3457 145.666C52.0454 146.172 56.151 146.182 60.6558 145.71L60.447 143.72ZM48.6343 143.687C45.0976 143.139 41.9014 142.232 39.0391 140.973L38.2336 142.803C41.2748 144.141 44.6419 145.092 48.3282 145.663L48.6343 143.687ZM39.617 142.084L41.7921 131.197L39.8309 130.805L37.6558 141.692L39.617 142.084ZM40.4198 131.921C43.0173 133.027 45.8877 133.891 49.0265 134.518L49.418 132.556C46.3947 131.953 43.658 131.126 41.2032 130.081L40.4198 131.921ZM49.0326 134.519C52.2702 135.144 55.4349 135.298 58.5231 134.974L58.3143 132.984C55.4353 133.287 52.4691 133.146 49.4119 132.555L49.0326 134.519ZM58.5231 134.974C62.4277 134.564 65.7099 133.457 68.3161 131.604L67.1569 129.974C64.8979 131.58 61.9681 132.601 58.3143 132.984L58.5231 134.974ZM68.3317 131.592C71.0548 129.575 72.2412 126.767 71.8788 123.315L69.8897 123.524C70.1817 126.305 69.2695 128.409 67.1414 129.985L68.3317 131.592ZM71.8788 123.315C71.6996 121.609 71.0922 120.145 70.0166 118.986L68.5506 120.347C69.289 121.142 69.7487 122.181 69.8897 123.524L71.8788 123.315ZM70.044 119.017C69.0934 117.904 67.8441 117.004 66.3303 116.299L65.486 118.112C66.7915 118.72 67.7924 119.46 68.5232 120.316L70.044 119.017ZM66.351 116.309C64.9204 115.602 63.3097 115.067 61.5271 114.697L61.1197 116.655C62.7636 116.997 64.2095 117.482 65.4654 118.102L66.351 116.309ZM61.5748 114.708C59.9121 114.276 58.1836 113.851 56.3894 113.434L55.9361 115.382C57.715 115.795 59.4269 116.216 61.072 116.644L61.5748 114.708ZM56.3687 113.429C54.2692 112.987 52.0201 112.427 49.6207 111.748L49.0759 113.672C51.5125 114.362 53.8064 114.934 55.9568 115.386L56.3687 113.429ZM49.6441 111.755C47.2979 111.028 45.087 110.029 43.0093 108.757L41.9648 110.462C44.1854 111.822 46.5486 112.89 49.0525 113.665L49.6441 111.755ZM43.0407 108.777C41.058 107.458 39.3138 105.76 37.8094 103.669L36.186 104.837C37.8211 107.109 39.7363 108.981 41.9334 110.442L43.0407 108.777ZM37.822 103.687C36.4358 101.669 35.5471 99.0552 35.2047 95.7942L33.2156 96.003C33.5833 99.5048 34.5529 102.461 36.1735 104.819L37.822 103.687ZM35.2047 95.7942C34.9523 93.3907 35.125 91.0816 35.7175 88.8599L33.785 88.3446C33.1269 90.8124 32.9389 93.3676 33.2156 96.003L35.2047 95.7942ZM35.7106 88.8844C36.356 86.6895 37.4943 84.7205 39.1401 82.9706L37.6832 81.6004C35.8315 83.5693 34.5295 85.8115 33.7919 88.3201L35.7106 88.8844ZM39.1401 82.9706C40.7759 81.2313 42.9706 79.7522 45.7591 78.5527L44.9689 76.7155C41.9851 77.999 39.5449 79.6209 37.6832 81.6004L39.1401 82.9706ZM45.7776 78.5446C48.5327 77.2931 51.9497 76.4399 56.0528 76.0092L55.8439 74.0201C51.5929 74.4664 47.9536 75.3595 44.9504 76.7237L45.7776 78.5446ZM56.0528 76.0092C59.769 75.619 63.1769 75.6238 66.2814 76.0148L66.5313 74.0305C63.2502 73.6172 59.6861 73.6167 55.8439 74.0201L56.0528 76.0092ZM66.286 76.0154C69.4646 76.4009 72.5156 77.1584 75.4411 78.2874L76.1612 76.4215C73.0785 75.2319 69.8662 74.4349 66.5267 74.03L66.286 76.0154ZM74.824 77.142L72.5862 87.4319L74.5405 87.8569L76.7783 77.567L74.824 77.142ZM73.8742 86.6939C71.171 85.8099 68.3946 85.2085 65.5463 84.8897L65.3238 86.8773C68.0376 87.181 70.6802 87.7536 73.2526 88.5948L73.8742 86.6939ZM65.5463 84.8897C62.7073 84.5719 60.083 84.5349 57.6782 84.7874L57.8871 86.7765C60.1234 86.5417 62.6008 86.5724 65.3238 86.8773L65.5463 84.8897ZM57.6782 84.7874C53.6186 85.2136 50.4904 86.2539 48.4827 88.0555L49.8185 89.5441C51.3639 88.1572 53.9904 87.1856 57.8871 86.7765L57.6782 84.7874ZM48.4827 88.0555C46.5003 89.8345 45.5647 91.996 45.8253 94.478L47.8144 94.2692C47.6294 92.5079 48.2477 90.9535 49.8185 89.5441L48.4827 88.0555ZM45.8253 94.478C46.0027 96.1679 46.5686 97.6446 47.5532 98.8648L49.1097 97.6089C48.399 96.7281 47.9572 95.6292 47.8144 94.2692L45.8253 94.478ZM47.5711 98.8864C48.5034 99.9778 49.6664 100.881 51.0432 101.604L51.9728 99.8334C50.7956 99.2154 49.841 98.4645 49.0919 97.5874L47.5711 98.8864ZM51.0432 101.604C52.3919 102.312 53.8925 102.89 55.5397 103.343L56.07 101.415C54.5421 100.995 53.178 100.466 51.9728 99.8334L51.0432 101.604ZM55.5397 103.343C57.1442 103.785 58.778 104.189 60.4412 104.556L60.8721 102.603C59.2415 102.243 57.6408 101.847 56.07 101.415L55.5397 103.343ZM60.4412 104.556C62.8819 105.094 65.3715 105.761 67.9102 106.556L68.508 104.647C65.9177 103.836 63.3723 103.154 60.8721 102.603L60.4412 104.556ZM67.9323 106.563C70.4006 107.274 72.6684 108.294 74.74 109.623L75.8195 107.939C73.5788 106.502 71.1329 105.403 68.486 104.641L67.9323 106.563ZM74.74 109.623C76.7798 110.93 78.5141 112.621 79.9448 114.703L81.5933 113.571C80.0172 111.276 78.092 109.396 75.8195 107.939L74.74 109.623ZM79.9518 114.713C81.3257 116.661 82.206 119.205 82.5412 122.397L84.5303 122.188C84.1693 118.75 83.2052 115.856 81.5863 113.56L79.9518 114.713ZM82.5412 122.397C82.8825 125.648 82.5341 128.463 81.541 130.872L83.3901 131.634C84.534 128.859 84.899 125.7 84.5303 122.188L82.5412 122.397ZM81.5331 130.892C80.5877 133.331 79.1361 135.442 77.1686 137.233L78.5152 138.712C80.7081 136.715 82.339 134.347 83.3979 131.615L81.5331 130.892ZM77.1581 137.243C75.2533 139.028 72.8807 140.465 70.0193 141.541L70.7235 143.413C73.7948 142.258 76.4026 140.692 78.5257 138.702L77.1581 137.243ZM70.0193 141.541C67.1426 142.624 63.9538 143.352 60.447 143.72L60.6558 145.71C64.3096 145.326 67.6674 144.563 70.7235 143.413L70.0193 141.541ZM101.705 139.188L101.81 140.182L102.804 140.078L102.7 139.083L101.705 139.188ZM88.7765 140.545L87.782 140.649L87.8864 141.644L88.8809 141.54L88.7765 140.545ZM81.7388 73.5135L81.6344 72.5189L80.6399 72.6234L80.7443 73.6179L81.7388 73.5135ZM94.6678 72.1561L95.6623 72.0516L95.5579 71.0571L94.5633 71.1615L94.6678 72.1561ZM101.601 138.193L88.6721 139.551L88.8809 141.54L101.81 140.182L101.601 138.193ZM89.771 140.441L82.7334 73.4091L80.7443 73.6179L87.782 140.649L89.771 140.441ZM81.8432 74.508L94.7722 73.1506L94.5633 71.1615L81.6344 72.5189L81.8432 74.508ZM93.6732 72.2605L100.711 139.292L102.7 139.083L95.6623 72.0516L93.6732 72.2605ZM118.041 85.4884L117.243 84.8848L117.243 84.8852L118.041 85.4884ZM120.873 121.087L120.137 121.764L120.149 121.777L120.162 121.79L120.873 121.087ZM126.834 125.187L126.447 126.109L126.465 126.117L126.483 126.123L126.834 125.187ZM138.852 124.73L139.266 125.64L139.282 125.633L139.299 125.624L138.852 124.73ZM142.758 121.706L143.516 122.357L143.526 122.346L143.535 122.335L142.758 121.706ZM145.083 117.037L144.122 116.759L144.12 116.768L144.117 116.778L145.083 117.037ZM145.112 106.778L146.106 106.674L146.002 105.679L145.007 105.784L145.112 106.778ZM132.183 108.136L131.188 108.24L131.293 109.234L132.287 109.13L132.183 108.136ZM131.055 97.3946L130.951 96.4L129.956 96.5045L130.061 97.499L131.055 97.3946ZM156.515 94.7215L157.51 94.6171L157.405 93.6226L156.411 93.727L156.515 94.7215ZM160.535 133.011L160.64 134.006L161.634 133.901L161.53 132.907L160.535 133.011ZM149.396 134.181L148.435 134.457L148.667 135.263L149.501 135.175L149.396 134.181ZM147.179 126.47L148.14 126.194L147.373 123.526L146.263 126.07L147.179 126.47ZM141.969 133.352L142.613 134.117L142.617 134.113L141.969 133.352ZM120.995 135.654L120.651 136.593L120.662 136.597L120.673 136.601L120.995 135.654ZM111.523 129.711L110.821 130.423L110.829 130.431L111.523 129.711ZM104.737 119.664L103.82 120.065L103.822 120.069L104.737 119.664ZM102.017 90.8911L101.047 90.6493L101.044 90.6624L102.017 90.8911ZM107.621 79.1417L106.837 78.5209L106.837 78.5211L107.621 79.1417ZM117.631 71.0523L118.083 71.9446L118.095 71.9382L117.631 71.0523ZM151.157 69.5434L152.135 69.7499L152.31 68.9246L151.525 68.6138L151.157 69.5434ZM149.008 79.7234L148.625 80.6473L149.738 81.1081L149.987 79.9299L149.008 79.7234ZM141.257 77.7218L141.111 78.7111L141.126 78.7133L141.14 78.715L141.257 77.7218ZM133.39 76.5368C126.343 77.2766 120.916 80.0342 117.243 84.8848L118.838 86.092C122.112 81.7671 126.987 79.22 133.599 78.5258L133.39 76.5368ZM117.243 84.8852C113.617 89.6799 112.346 96.3736 113.231 104.796L115.22 104.587C114.364 96.4344 115.636 90.3259 118.838 86.0916L117.243 84.8852ZM113.231 104.796C113.608 108.391 114.393 111.626 115.599 114.491L117.442 113.716C116.325 111.06 115.58 108.021 115.22 104.587L113.231 104.796ZM115.599 114.491C116.797 117.341 118.307 119.771 120.137 121.764L121.61 120.411C119.959 118.613 118.566 116.387 117.442 113.716L115.599 114.491ZM120.162 121.79C122.047 123.698 124.142 125.143 126.447 126.109L127.221 124.265C125.179 123.409 123.3 122.121 121.585 120.384L120.162 121.79ZM126.483 126.123C128.866 127.018 131.366 127.326 133.968 127.053L133.759 125.064C131.455 125.305 129.268 125.033 127.185 124.251L126.483 126.123ZM133.968 127.053C135.858 126.854 137.626 126.385 139.266 125.64L138.438 123.819C137.007 124.47 135.449 124.886 133.759 125.064L133.968 127.053ZM139.299 125.624C140.942 124.803 142.351 123.714 143.516 122.357L141.999 121.054C141.013 122.202 139.819 123.129 138.405 123.835L139.299 125.624ZM143.535 122.335C144.699 120.898 145.534 119.213 146.049 117.297L144.117 116.778C143.668 118.449 142.953 119.876 141.98 121.076L143.535 122.335ZM146.043 117.316C146.627 115.303 146.778 113.076 146.524 110.652L144.535 110.861C144.768 113.078 144.621 115.038 144.122 116.759L146.043 117.316ZM146.524 110.652L146.106 106.674L144.117 106.883L144.535 110.861L146.524 110.652ZM145.007 105.784L132.078 107.141L132.287 109.13L145.216 107.773L145.007 105.784ZM133.177 108.031L132.05 97.2902L130.061 97.499L131.188 108.24L133.177 108.031ZM131.16 98.3891L156.62 95.7161L156.411 93.727L130.951 96.4L131.16 98.3891ZM155.521 94.8259L159.541 133.115L161.53 132.907L157.51 94.6171L155.521 94.8259ZM160.431 132.017L149.292 133.186L149.501 135.175L160.64 134.006L160.431 132.017ZM150.357 133.904L148.14 126.194L146.218 126.746L148.435 134.457L150.357 133.904ZM146.263 126.07C145.194 128.518 143.554 130.692 141.321 132.59L142.617 134.113C145.062 132.035 146.895 129.62 148.096 126.87L146.263 126.07ZM141.326 132.586C139.244 134.335 136.325 135.452 132.479 135.856L132.688 137.845C136.798 137.414 140.136 136.198 142.613 134.117L141.326 132.586ZM132.479 135.856C128.5 136.274 124.784 135.886 121.317 134.707L120.673 136.601C124.436 137.881 128.445 138.291 132.688 137.845L132.479 135.856ZM121.339 134.715C117.916 133.461 114.877 131.555 112.217 128.991L110.829 130.431C113.687 133.186 116.963 135.242 120.651 136.593L121.339 134.715ZM112.225 128.998C109.558 126.371 107.364 123.13 105.651 119.26L103.822 120.069C105.625 124.142 107.955 127.599 110.821 130.423L112.225 128.998ZM105.653 119.264C103.935 115.333 102.811 110.897 102.291 105.945L100.302 106.154C100.84 111.28 102.009 115.92 103.82 120.065L105.653 119.264ZM102.291 105.945C101.715 100.465 101.955 95.5272 102.991 91.1197L101.044 90.6624C99.9481 95.327 99.7074 100.495 100.302 106.154L102.291 105.945ZM102.988 91.1328C104.089 86.7118 105.899 82.9283 108.405 79.7623L106.837 78.5211C104.135 81.9349 102.209 85.9843 101.047 90.6493L102.988 91.1328ZM108.405 79.7625C110.974 76.5182 114.196 73.9121 118.083 71.9445L117.18 70.1601C113.047 72.252 109.595 75.0389 106.837 78.5209L108.405 79.7625ZM118.095 71.9382C121.971 69.9088 126.433 68.6199 131.497 68.0882L131.289 66.0991C126.01 66.6533 121.298 68.0035 117.167 70.1664L118.095 71.9382ZM131.497 68.0882C138.516 67.3513 144.939 68.154 150.788 70.473L151.525 68.6138C145.344 66.1629 138.591 65.3324 131.289 66.0991L131.497 68.0882ZM150.178 69.3369L148.03 79.5169L149.987 79.9299L152.135 69.7499L150.178 69.3369ZM149.391 78.7995C146.85 77.7471 144.177 77.0573 141.373 76.7286L141.14 78.715C143.766 79.0229 146.26 79.6675 148.625 80.6473L149.391 78.7995ZM141.403 76.7325C138.669 76.3295 135.998 76.263 133.39 76.5368L133.599 78.5258C136.03 78.2706 138.533 78.3311 141.111 78.7111L141.403 76.7325ZM199.965 61.1009L199.86 60.1063L198.866 60.2108L198.97 61.2053L199.965 61.1009ZM212.894 59.7435L213.888 59.639L213.784 58.6445L212.789 58.7489L212.894 59.7435ZM219.931 126.775L220.036 127.77L221.03 127.665L220.926 126.671L219.931 126.775ZM207.002 128.132L206.204 128.735L206.545 129.186L207.107 129.127L207.002 128.132ZM180.139 92.5428L179.34 93.1441L179.341 93.1453L180.139 92.5428ZM175.64 86.0773L174.784 86.5953L174.791 86.6055L174.797 86.6155L175.64 86.0773ZM172.114 79.3085L173.028 78.9024L172.732 78.2381L172.009 78.314L172.114 79.3085ZM171.815 79.3398L171.711 78.3453L170.509 78.4715L170.858 79.6285L171.815 79.3398ZM173.865 87.3697L172.886 87.5726L172.889 87.5862L172.892 87.5998L173.865 87.3697ZM178.957 131.077L179.061 132.072L180.056 131.967L179.951 130.973L178.957 131.077ZM166.028 132.434L165.033 132.539L165.138 133.533L166.132 133.429L166.028 132.434ZM158.99 65.4028L158.886 64.4083L157.891 64.5127L157.995 65.5073L158.99 65.4028ZM172.913 63.941L173.723 63.3542L173.384 62.8861L172.809 62.9465L172.913 63.941ZM198.782 99.635L197.972 100.222L197.977 100.229L197.983 100.236L198.782 99.635ZM203.182 106.111L202.327 106.629L202.333 106.639L202.339 106.649L203.182 106.111ZM206.808 112.869L205.894 113.275L206.189 113.94L206.912 113.864L206.808 112.869ZM207.106 112.838L207.21 113.833L208.412 113.706L208.063 112.549L207.106 112.838ZM204.967 104.918L203.988 105.121L203.991 105.135L203.994 105.148L204.967 104.918ZM200.069 62.0954L212.998 60.738L212.789 58.7489L199.86 60.1063L200.069 62.0954ZM211.899 59.8479L218.937 126.879L220.926 126.671L213.888 59.639L211.899 59.8479ZM219.827 125.78L206.898 127.138L207.107 129.127L220.036 127.77L219.827 125.78ZM207.801 127.53L180.938 91.9404L179.341 93.1453L206.204 128.735L207.801 127.53ZM180.939 91.9416C179.317 89.7862 177.832 87.652 176.483 85.5392L174.797 86.6155C176.175 88.7745 177.69 90.9507 179.34 93.1441L180.939 91.9416ZM176.495 85.5594C175.22 83.4537 174.064 81.2349 173.028 78.9024L171.2 79.7147C172.27 82.1214 173.464 84.4151 174.784 86.5953L176.495 85.5594ZM172.009 78.314L171.711 78.3453L171.92 80.3344L172.218 80.3031L172.009 78.314ZM170.858 79.6285C171.673 82.331 172.349 84.979 172.886 87.5726L174.844 87.1669C174.294 84.512 173.604 81.8067 172.773 79.0512L170.858 79.6285ZM172.892 87.5998C173.487 90.1183 173.892 92.412 174.109 94.4831L176.098 94.2743C175.87 92.1021 175.449 89.7231 174.838 87.1397L172.892 87.5998ZM174.109 94.4831L177.962 131.181L179.951 130.973L176.098 94.2743L174.109 94.4831ZM178.852 130.082L165.923 131.44L166.132 133.429L179.061 132.072L178.852 130.082ZM167.022 132.33L159.985 65.2984L157.995 65.5073L165.033 132.539L167.022 132.33ZM159.094 66.3974L173.018 64.9355L172.809 62.9465L158.886 64.4083L159.094 66.3974ZM172.104 64.5278L197.972 100.222L199.592 99.0482L173.723 63.3542L172.104 64.5278ZM197.983 100.236C199.6 102.386 201.048 104.517 202.327 106.629L204.038 105.593C202.721 103.419 201.235 101.233 199.581 99.0338L197.983 100.236ZM202.339 106.649C203.676 108.742 204.861 110.95 205.894 113.275L207.721 112.463C206.648 110.049 205.416 107.752 204.025 105.573L202.339 106.649ZM206.912 113.864L207.21 113.833L207.002 111.843L206.703 111.875L206.912 113.864ZM208.063 112.549C207.246 109.838 206.539 107.218 205.941 104.688L203.994 105.148C204.602 107.72 205.32 110.38 206.149 113.127L208.063 112.549ZM205.947 104.715C205.408 102.116 205.031 99.7763 204.812 97.6948L202.823 97.9036C203.05 100.065 203.439 102.472 203.988 105.121L205.947 104.715ZM204.812 97.6948L200.959 60.9965L198.97 61.2053L202.823 97.9036L204.812 97.6948ZM277.278 106.878L276.451 106.316L276.45 106.318L277.278 106.878ZM275.461 53.1745L275.356 52.18L274.362 52.2844L274.466 53.2789L275.461 53.1745ZM288.39 51.8171L289.384 51.7127L289.28 50.7182L288.285 50.8226L288.39 51.8171ZM287.661 113.832L286.893 113.192L287.661 113.832ZM248.079 117.988L248.697 117.202L248.079 117.988ZM234.486 57.4765L234.382 56.4819L233.387 56.5864L233.491 57.5809L234.486 57.4765ZM247.415 56.1191L248.409 56.0147L248.305 55.0201L247.31 55.1245L247.415 56.1191ZM256.691 109.04L255.99 109.752L255.998 109.761L256.007 109.769L256.691 109.04ZM267.598 113.324C272.219 112.839 275.769 110.896 278.107 107.438L276.45 106.318C274.494 109.211 271.52 110.902 267.39 111.335L267.598 113.324ZM278.105 107.44C280.499 103.917 281.281 99.0342 280.642 92.9509L278.653 93.1597C279.268 99.0108 278.47 103.344 276.451 106.316L278.105 107.44ZM280.642 92.9509L276.455 53.0701L274.466 53.2789L278.653 93.1597L280.642 92.9509ZM275.565 54.1691L288.494 52.8116L288.285 50.8226L275.356 52.18L275.565 54.1691ZM287.395 51.9215L291.572 91.7029L293.561 91.494L289.384 51.7127L287.395 51.9215ZM291.572 91.7029C292.573 101.237 290.941 108.336 286.893 113.192L288.429 114.472C292.954 109.044 294.593 101.32 293.561 91.494L291.572 91.7029ZM286.893 113.192C282.814 118.085 276.73 121.013 268.496 121.877L268.705 123.866C277.313 122.963 283.935 119.864 288.429 114.472L286.893 113.192ZM268.496 121.877C260.263 122.742 253.703 121.141 248.697 117.202L247.46 118.774C252.976 123.114 260.098 124.77 268.705 123.866L268.496 121.877ZM248.697 117.202C243.729 113.292 240.658 106.687 239.657 97.1534L237.668 97.3622C238.7 107.188 241.907 114.404 247.46 118.774L248.697 117.202ZM239.657 97.1534L235.481 57.3721L233.491 57.5809L237.668 97.3622L239.657 97.1534ZM234.59 58.471L247.519 57.1136L247.31 55.1245L234.382 56.4819L234.59 58.471ZM246.42 56.2235L250.607 96.1043L252.597 95.8954L248.409 56.0147L246.42 56.2235ZM250.607 96.1043C251.246 102.183 252.989 106.795 255.99 109.752L257.393 108.327C254.861 105.832 253.211 101.752 252.597 95.8954L250.607 96.1043ZM256.007 109.769C259.075 112.649 262.977 113.809 267.598 113.324L267.39 111.335C263.259 111.769 259.96 110.736 257.376 108.311L256.007 109.769ZM343.567 76.6917L344.523 76.9846L344.525 76.9762L343.567 76.6917ZM332.456 89.6225L332.905 90.516L332.456 89.6225ZM312.047 93.4746L311.942 92.4801L310.948 92.5845L311.052 93.579L312.047 93.4746ZM314.501 116.846L314.605 117.841L315.6 117.736L315.495 116.742L314.501 116.846ZM301.572 118.204L300.577 118.308L300.682 119.303L301.676 119.198L301.572 118.204ZM294.534 51.172L294.43 50.1775L293.435 50.2819L293.539 51.2764L294.534 51.172ZM328.725 49.2917L328.464 50.257L328.464 50.257L328.725 49.2917ZM336.564 53.0938L335.948 53.8815L336.564 53.0938ZM341.86 59.4758L340.975 59.9421L341.86 59.4758ZM327.931 61.8432L327.274 62.5973L327.281 62.603L327.287 62.6087L327.931 61.8432ZM308.632 60.9534L308.528 59.9588L307.533 60.0633L307.638 61.0578L308.632 60.9534ZM310.877 82.3358L309.883 82.4403L309.987 83.4348L310.982 83.3304L310.877 82.3358ZM329.272 77.4887L328.495 76.8593L329.272 77.4887ZM343.344 67.8667C343.658 70.86 343.41 73.7038 342.608 76.4072L344.525 76.9762C345.407 74.0061 345.673 70.897 345.333 67.6579L343.344 67.8667ZM342.611 76.3988C341.801 79.0423 340.517 81.411 338.757 83.5126L340.291 84.7967C342.224 82.4885 343.635 79.8819 344.523 76.9846L342.611 76.3988ZM338.757 83.5126C337.008 85.6014 334.764 87.3428 332.007 88.729L332.905 90.516C335.878 89.0214 338.347 87.1175 340.291 84.7967L338.757 83.5126ZM332.007 88.729C329.264 90.108 326.128 90.9908 322.584 91.3628L322.793 93.3519C326.542 92.9582 329.918 92.0177 332.905 90.516L332.007 88.729ZM322.584 91.3628L311.942 92.4801L312.151 94.4692L322.793 93.3519L322.584 91.3628ZM311.052 93.579L313.506 116.951L315.495 116.742L313.041 93.3702L311.052 93.579ZM314.396 115.852L301.467 117.209L301.676 119.198L314.605 117.841L314.396 115.852ZM302.566 118.099L295.529 51.0676L293.539 51.2764L300.577 118.308L302.566 118.099ZM294.638 52.1665L318.806 49.6292L318.597 47.6402L294.43 50.1775L294.638 52.1665ZM318.806 49.6292C322.35 49.2571 325.565 49.4732 328.464 50.257L328.986 48.3263C325.813 47.4685 322.346 47.2465 318.597 47.6402L318.806 49.6292ZM328.464 50.257C331.387 51.0475 333.876 52.26 335.948 53.8815L337.181 52.3062C334.871 50.4998 332.134 49.1775 328.986 48.3263L328.464 50.257ZM335.948 53.8815C338.024 55.5056 339.699 57.5221 340.975 59.9421L342.744 59.0095C341.342 56.3481 339.486 54.11 337.181 52.3062L335.948 53.8815ZM340.975 59.9421C342.252 62.3653 343.043 65.0039 343.344 67.8667L345.333 67.6579C345.007 64.5535 344.146 61.6677 342.744 59.0095L340.975 59.9421ZM332.404 69.0153C332.05 65.6388 330.802 62.9498 328.574 61.0777L327.287 62.6087C329.03 64.0735 330.101 66.2355 330.415 69.2241L332.404 69.0153ZM328.588 61.089C326.33 59.1231 323.34 58.4037 319.766 58.7789L319.975 60.768C323.164 60.4332 325.547 61.0936 327.274 62.5973L328.588 61.089ZM319.766 58.7789L308.528 59.9588L308.737 61.9479L319.975 60.768L319.766 58.7789ZM307.638 61.0578L309.883 82.4403L311.872 82.2314L309.627 60.849L307.638 61.0578ZM310.982 83.3304L321.623 82.2131L321.414 80.2241L310.773 81.3413L310.982 83.3304ZM321.623 82.2131C325.261 81.8313 328.119 80.5004 330.049 78.1181L328.495 76.8593C326.983 78.7262 324.673 79.882 321.414 80.2241L321.623 82.2131ZM330.049 78.1181C332.029 75.6734 332.781 72.6034 332.404 69.0153L330.415 69.2241C330.748 72.3988 330.075 74.9081 328.495 76.8593L330.049 78.1181Z" fill="black" mask="url(#path-3-outside-2_68_434)"/>
</g>
<defs>
<filter id="filter0_d_68_434" x="31.3595" y="44.9874" width="322.876" height="107.823" filterUnits="userSpaceOnUse" color-interpolation-filters="sRGB">
<feFlood flood-opacity="0" result="BackgroundImageFix"/>
<feColorMatrix in="SourceAlpha" type="matrix" values="0 0 0 0 0 0 0 0 0 0 0 0 0 0 0 0 0 0 127 0" result="hardAlpha"/>
<feOffset dx="5" dy="5"/>
<feComposite in2="hardAlpha" operator="out"/>
<feColorMatrix type="matrix" values="0 0 0 0 0 0 0 0 0 0 0 0 0 0 0 0 0 0 1 0"/>
<feBlend mode="normal" in2="BackgroundImageFix" result="effect1_dropShadow_68_434"/>
<feBlend mode="normal" in="SourceGraphic" in2="effect1_dropShadow_68_434" result="shape"/>
</filter>
</defs>
</svg>
